{
  "accessors": [
    {
      "bufferView": 2,
      "componentType": 5126,
      "count": 4,
      "max": [
        1,
        1,
        0
      ],
      "min": [
        -1,
        -1,
        0
      ],
      "type": "VEC3"
    },
    {
      "bufferView": 2,
      "byteOffset": 48,
      "componentType": 5126,
      "count": 4,
      "max": [
        0,
        0,
        1
      ],
      "min": [
        0,
        0,
        1
      ],
      "type": "VEC3"
    },
    {
      "bufferView": 3,
      "componentType": 5126,
      "count": 4,
      "max": [
        1,
        0,
        0,
        1
      ],
      "min": [
        1,
        0,
        0,
        1
      ],
      "type": "VEC4"
    },
    {
      "bufferView": 1,
      "componentType": 5126,
      "count": 4,
      "max": [
        0.99990004301071167,
        0.99990004301071167
      ],
      "min": [
        9.9980010418221354e-05,
        9.9980010418221354e-05
      ],
      "type": "VEC2"
    },
    {
      "bufferView": 0,
      "componentType": 5125,
      "count": 6,
      "max": [
        3
      ],
      "min": [
        0
      ],
      "type": "SCALAR"
    },
    {
      "bufferView": 2,
      "byteOffset": 96,
      "componentType": 5126,
      "count": 27656,
      "max": [
        1.0600379705429077,
        1.4969569444656372,
        0.26013201475143433
      ],
      "min": [
        -0.93007999658584595,
        0.88616102933883667,
        -1.1577010154724121
      ],
      "type": "VEC3"
    },
    {
      "bufferView": 2,
      "byteOffset": 331968,
      "componentType": 5126,
      "count": 27656,
      "max": [
        0.99989920854568481,
        0.99994593858718872,
        0.99996912479400635
      ],
      "min": [
        -0.99996298551559448,
        -0.99998360872268677,
        -0.99994760751724243
      ],
      "type": "VEC3"
    },
    {
      "bufferView": 3,
      "byteOffset": 64,
      "componentType": 5126,
      "count": 27656,
      "max": [
        0.99999195337295532,
        0.99981838464736938,
        0.99971681833267212,
        1
      ],
      "min": [
        -0.99974203109741211,
        -0.99996483325958252,
        -0.99999797344207764,
        -1
      ],
      "type": "VEC4"
    },
    {
      "bufferView": 1,
      "byteOffset": 32,
      "componentType": 5126,
      "count": 27656,
      "max": [
        0.99769997596740723,
        0.99779999256134033
      ],
      "min": [
        0.002099999925121665,
        0.002199999988079071
      ],
      "type": "VEC2"
    },
    {
      "bufferView": 0,
      "byteOffset": 24,
      "componentType": 5125,
      "count": 102180,
      "max": [
        27655
      ],
      "min": [
        0
      ],
      "type": "SCALAR"
    },
    {
      "bufferView": 2,
      "byteOffset": 663840,
      "componentType": 5126,
      "count": 8878,
      "max": [
        0.85689002275466919,
        1.9874299764633179,
        0.84521102905273438
      ],
      "min": [
        -1.4192010164260864,
        0.81752800941467285,
        -0.87504202127456665
      ],
      "type": "VEC3"
    },
    {
      "bufferView": 2,
      "byteOffset": 770376,
      "componentType": 5126,
      "count": 8878,
      "max": [
        0.99974346160888672,
        0.99966204166412354,
        0.99978649616241455
      ],
      "min": [
        -0.99982327222824097,
        -0.9997439980506897,
        -0.99978595972061157
      ],
      "type": "VEC3"
    },
    {
      "bufferView": 3,
      "byteOffset": 442560,
      "componentType": 5126,
      "count": 8878,
      "max": [
        0.99997502565383911,
        0.99977248907089233,
        0.99995225667953491,
        1
      ],
      "min": [
        -0.99975669384002686,
        -0.99669235944747925,
        -0.99980312585830688,
        -1
      ],
      "type": "VEC4"
    },
    {
      "bufferView": 1,
      "byteOffset": 221280,
      "componentType": 5126,
      "count": 8878,
      "max": [
        0.99910002946853638,
        0.99580001831054688
      ],
      "min": [
        0.00089999998454004526,
        0.00089999998454004526
      ],
      "type": "VEC2"
    },
    {
      "bufferView": 0,
      "byteOffset": 408744,
      "componentType": 5125,
      "count": 35352,
      "max": [
        8877
      ],
      "min": [
        0
      ],
      "type": "SCALAR"
    },
    {
      "bufferView": 2,
      "byteOffset": 876912,
      "componentType": 5126,
      "count": 24443,
      "max": [
        0.57357102632522583,
        2.164654016494751,
        0.490774005651474
      ],
      "min": [
        -0.60554802417755127,
        0.89768201112747192,
        -0.48016399145126343
      ],
      "type": "VEC3"
    },
    {
      "bufferView": 2,
      "byteOffset": 1170228,
      "componentType": 5126,
      "count": 24443,
      "max": [
        0.99987620115280151,
        0.99988293647766113,
        0.99986851215362549
      ],
      "min": [
        -0.99991077184677124,
        -0.99973076581954956,
        -0.99983638525009155
      ],
      "type": "VEC3"
    },
    {
      "bufferView": 3,
      "byteOffset": 584608,
      "componentType": 5126,
      "count": 24443,
      "max": [
        0.99976241588592529,
        0.99997252225875854,
        0.99956750869750977,
        1
      ],
      "min": [
        -0.99994897842407227,
        -0.99974298477172852,
        -0.99965018033981323,
        -1
      ],
      "type": "VEC4"
    },
    {
      "bufferView": 1,
      "byteOffset": 292304,
      "componentType": 5126,
      "count": 24443,
      "max": [
        0.99910002946853638,
        0.99629998207092285
      ],
      "min": [
        0.00089999998454004526,
        0.00089999998454004526
      ],
      "type": "VEC2"
    },
    {
      "bufferView": 0,
      "byteOffset": 550152,
      "componentType": 5125,
      "count": 129006,
      "max": [
        24442
      ],
      "min": [
        0
      ],
      "type": "SCALAR"
    },
    {
      "bufferView": 2,
      "byteOffset": 1463544,
      "componentType": 5126,
      "count": 5238,
      "max": [
        0.48402601480484009,
        2.2758429050445557,
        0.52321898937225342
      ],
      "min": [
        -0.64974099397659302,
        0.74732798337936401,
        -0.52182698249816895
      ],
      "type": "VEC3"
    },
    {
      "bufferView": 2,
      "byteOffset": 1526400,
      "componentType": 5126,
      "count": 5238,
      "max": [
        0.99998760223388672,
        0.99982106685638428,
        0.99966943264007568
      ],
      "min": [
        -0.99988722801208496,
        -0.99996316432952881,
        -0.99994874000549316
      ],
      "type": "VEC3"
    },
    {
      "bufferView": 3,
      "byteOffset": 975696,
      "componentType": 5126,
      "count": 5238,
      "max": [
        0.99916291236877441,
        0.99995690584182739,
        0.99996882677078247,
        1
      ],
      "min": [
        -0.99993056058883667,
        -0.99994826316833496,
        -0.99987637996673584,
        -1
      ],
      "type": "VEC4"
    },
    {
      "bufferView": 1,
      "byteOffset": 487848,
      "componentType": 5126,
      "count": 5238,
      "max": [
        0.99610000848770142,
        0.99809998273849487
      ],
      "min": [
        0.0054999999701976776,
        0.0065000001341104507
      ],
      "type": "VEC2"
    },
    {
      "bufferView": 0,
      "byteOffset": 1066176,
      "componentType": 5125,
      "count": 25542,
      "max": [
        5237
      ],
      "min": [
        0
      ],
      "type": "SCALAR"
    },
    {
      "bufferView": 2,
      "byteOffset": 1589256,
      "componentType": 5126,
      "count": 13629,
      "max": [
        0.67366397380828857,
        2.3252549171447754,
        0.53412902355194092
      ],
      "min": [
        -0.82694697380065918,
        0.001500000013038516,
        -0.91957199573516846
      ],
      "type": "VEC3"
    },
    {
      "bufferView": 2,
      "byteOffset": 1752804,
      "componentType": 5126,
      "count": 13629,
      "max": [
        1,
        1,
        1
      ],
      "min": [
        -1,
        -1,
        -1
      ],
      "type": "VEC3"
    },
    {
      "bufferView": 3,
      "byteOffset": 1059504,
      "componentType": 5126,
      "count": 13629,
      "max": [
        0.99951499700546265,
        0.99980467557907104,
        0.99923920631408691,
        1
      ],
      "min": [
        -0.99965614080429077,
        -0.99993908405303955,
        -0.99997818470001221,
        -1
      ],
      "type": "VEC4"
    },
    {
      "bufferView": 1,
      "byteOffset": 529752,
      "componentType": 5126,
      "count": 13629,
      "max": [
        0.99910002946853638,
        0.99739998579025269
      ],
      "min": [
        0.00089999998454004526,
        0.00089999998454004526
      ],
      "type": "VEC2"
    },
    {
      "bufferView": 0,
      "byteOffset": 1168344,
      "componentType": 5125,
      "count": 63666,
      "max": [
        13628
      ],
      "min": [
        0
      ],
      "type": "SCALAR"
    }
  ],
  "asset": {
    "extras": {
      "author": "TooManyDemons (https://sketchfab.com/toomanydemons)",
      "license": "CC-BY-4.0 (http://creativecommons.org/licenses/by/4.0/)",
      "source": "https://sketchfab.com/3d-models/dreadroamer-b5de35069fd94e6eaf2309a38e6c6a8e",
      "title": "DreadRoamer"
    },
    "generator": "Sketchfab-7.29.0",
    "version": "2.0"
  },
  "bufferViews": [
    {
      "buffer": 0,
      "byteLength": 1423008,
      "byteOffset": 0,
      "name": "floatBufferViews",
      "target": 34963
    },
    {
      "buffer": 0,
      "byteLength": 638784,
      "byteOffset": 1423008,
      "byteStride": 8,
      "name": "floatBufferViews",
      "target": 34962
    },
    {
      "buffer": 0,
      "byteLength": 1916352,
      "byteOffset": 2061792,
      "byteStride": 12,
      "name": "floatBufferViews",
      "target": 34962
    },
    {
      "buffer": 0,
      "byteLength": 1277568,
      "byteOffset": 3978144,
      "byteStride": 16,
      "name": "floatBufferViews",
      "target": 34962
    }
  ],
  "buffers": [
    {
      "byteLength": 5255712,
      "uri": "scene.bin"
    }
  ],
  "images": [
    {
      "uri": "textures/Ground_baseColor.png"
    },
    {
      "uri": "textures/Ground_metallicRoughness.png"
    },
    {
      "uri": "textures/Ground_normal.png"
    },
    {
      "uri": "textures/MAT_Bullets.003_baseColor.png"
    },
    {
      "uri": "textures/MAT_Bullets.003_metallicRoughness.png"
    },
    {
      "uri": "textures/MAT_Bullets.003_normal.png"
    },
    {
      "uri": "textures/MAT_Mech2.003_baseColor.png"
    },
    {
      "uri": "textures/MAT_Mech2.003_metallicRoughness.png"
    },
    {
      "uri": "textures/MAT_Mech2.003_normal.png"
    },
    {
      "uri": "textures/MAT_Plating.003_baseColor.png"
    },
    {
      "uri": "textures/MAT_Plating.003_metallicRoughness.png"
    },
    {
      "uri": "textures/MAT_Plating.003_normal.png"
    },
    {
      "uri": "textures/MAT_Body.003_baseColor.png"
    },
    {
      "uri": "textures/MAT_Body.003_metallicRoughness.png"
    },
    {
      "uri": "textures/MAT_Body.003_emissive.png"
    },
    {
      "uri": "textures/MAT_Body.003_normal.png"
    },
    {
      "uri": "textures/MAT_Mech1.003_baseColor.png"
    },
    {
      "uri": "textures/MAT_Mech1.003_metallicRoughness.png"
    },
    {
      "uri": "textures/MAT_Mech1.003_normal.png"
    }
  ],
  "materials": [
    {
      "alphaMode": "BLEND",
      "doubleSided": true,
      "name": "Ground",
      "normalTexture": {
        "index": 2,
        "scale": 1,
        "texCoord": 0
      },
      "pbrMetallicRoughness": {
        "baseColorFactor": [
          1,
          1,
          1,
          1
        ],
        "baseColorTexture": {
          "index": 0,
          "texCoord": 0
        },
        "metallicFactor": 1,
        "metallicRoughnessTexture": {
          "index": 1,
          "texCoord": 0
        },
        "roughnessFactor": 1
      }
    },
    {
      "doubleSided": false,
      "emissiveFactor": [
        0,
        0,
        0
      ],
      "name": "MAT_Bullets.003",
      "normalTexture": {
        "index": 5,
        "scale": 1,
        "texCoord": 0
      },
      "occlusionTexture": {
        "index": 4,
        "strength": 1,
        "texCoord": 0
      },
      "pbrMetallicRoughness": {
        "baseColorFactor": [
          1,
          1,
          1,
          1
        ],
        "baseColorTexture": {
          "index": 3,
          "texCoord": 0
        },
        "metallicFactor": 1,
        "metallicRoughnessTexture": {
          "index": 4,
          "texCoord": 0
        },
        "roughnessFactor": 1
      }
    },
    {
      "doubleSided": false,
      "emissiveFactor": [
        0,
        0,
        0
      ],
      "name": "MAT_Mech2.003",
      "normalTexture": {
        "index": 8,
        "scale": 1,
        "texCoord": 0
      },
      "occlusionTexture": {
        "index": 7,
        "strength": 1,
        "texCoord": 0
      },
      "pbrMetallicRoughness": {
        "baseColorFactor": [
          1,
          1,
          1,
          1
        ],
        "baseColorTexture": {
          "index": 6,
          "texCoord": 0
        },
        "metallicFactor": 1,
        "metallicRoughnessTexture": {
          "index": 7,
          "texCoord": 0
        },
        "roughnessFactor": 1
      }
    },
    {
      "doubleSided": false,
      "emissiveFactor": [
        0,
        0,
        0
      ],
      "name": "MAT_Plating.003",
      "normalTexture": {
        "index": 11,
        "scale": 1,
        "texCoord": 0
      },
      "occlusionTexture": {
        "index": 10,
        "strength": 1,
        "texCoord": 0
      },
      "pbrMetallicRoughness": {
        "baseColorFactor": [
          1,
          1,
          1,
          1
        ],
        "baseColorTexture": {
          "index": 9,
          "texCoord": 0
        },
        "metallicFactor": 1,
        "metallicRoughnessTexture": {
          "index": 10,
          "texCoord": 0
        },
        "roughnessFactor": 1
      }
    },
    {
      "doubleSided": false,
      "emissiveFactor": [
        1,
        1,
        1
      ],
      "emissiveTexture": {
        "index": 14,
        "texCoord": 0
      },
      "name": "MAT_Body.003",
      "normalTexture": {
        "index": 15,
        "scale": 1,
        "texCoord": 0
      },
      "occlusionTexture": {
        "index": 13,
        "strength": 1,
        "texCoord": 0
      },
      "pbrMetallicRoughness": {
        "baseColorFactor": [
          1,
          1,
          1,
          1
        ],
        "baseColorTexture": {
          "index": 12,
          "texCoord": 0
        },
        "metallicFactor": 1,
        "metallicRoughnessTexture": {
          "index": 13,
          "texCoord": 0
        },
        "roughnessFactor": 1
      }
    },
    {
      "doubleSided": false,
      "emissiveFactor": [
        0,
        0,
        0
      ],
      "name": "MAT_Mech1.003",
      "normalTexture": {
        "index": 18,
        "scale": 1,
        "texCoord": 0
      },
      "occlusionTexture": {
        "index": 17,
        "strength": 1,
        "texCoord": 0
      },
      "pbrMetallicRoughness": {
        "baseColorFactor": [
          1,
          1,
          1,
          1
        ],
        "baseColorTexture": {
          "index": 16,
          "texCoord": 0
        },
        "metallicFactor": 1,
        "metallicRoughnessTexture": {
          "index": 17,
          "texCoord": 0
        },
        "roughnessFactor": 1
      }
    }
  ],
  "meshes": [
    {
      "name": "Plane_Ground_0",
      "primitives": [
        {
          "attributes": {
            "NORMAL": 1,
            "POSITION": 0,
            "TANGENT": 2,
            "TEXCOORD_0": 3
          },
          "indices": 4,
          "material": 0,
          "mode": 4
        }
      ]
    },
    {
      "name": "Body_Mesh.002_MAT_Bullets.003_0",
      "primitives": [
        {
          "attributes": {
            "NORMAL": 6,
            "POSITION": 5,
            "TANGENT": 7,
            "TEXCOORD_0": 8
          },
          "indices": 9,
          "material": 1,
          "mode": 4
        }
      ]
    },
    {
      "name": "Body_Mesh.002_MAT_Mech2.003_0",
      "primitives": [
        {
          "attributes": {
            "NORMAL": 11,
            "POSITION": 10,
            "TANGENT": 12,
            "TEXCOORD_0": 13
          },
          "indices": 14,
          "material": 2,
          "mode": 4
        }
      ]
    },
    {
      "name": "Body_Mesh.002_MAT_Plating.003_0",
      "primitives": [
        {
          "attributes": {
            "NORMAL": 16,
            "POSITION": 15,
            "TANGENT": 17,
            "TEXCOORD_0": 18
          },
          "indices": 19,
          "material": 3,
          "mode": 4
        }
      ]
    },
    {
      "name": "Body_Mesh.002_MAT_Body.003_0",
      "primitives": [
        {
          "attributes": {
            "NORMAL": 21,
            "POSITION": 20,
            "TANGENT": 22,
            "TEXCOORD_0": 23
          },
          "indices": 24,
          "material": 4,
          "mode": 4
        }
      ]
    },
    {
      "name": "Body_Mesh.002_MAT_Mech1.003_0",
      "primitives": [
        {
          "attributes": {
            "NORMAL": 26,
            "POSITION": 25,
            "TANGENT": 27,
            "TEXCOORD_0": 28
          },
          "indices": 29,
          "material": 5,
          "mode": 4
        }
      ]
    }
  ],
  "nodes": [
    {
      "children": [
        1
      ],
      "name": "RootNode (gltf orientation matrix)",
      "rotation": [
        -0.70710678118654746,
        -0,
        -0,
        0.70710678118654757
      ]
    },
    {
      "children": [
        2
      ],
      "name": "RootNode (model correction matrix)"
    },
    {
      "children": [
        3
      ],
      "matrix": [
        1,
        0,
        0,
        0,
        0,
        0,
        1,
        0,
        0,
        -1,
        0,
        0,
        0,
        0,
        0,
        1
      ],
      "name": "6bd3f300f474424893f9b31bdf371b7a.fbx"
    },
    {
      "children": [
        4,
        6
      ],
      "name": "RootNode"
    },
    {
      "children": [
        5
      ],
      "matrix": [
        190,
        0,
        0,
        0,
        0,
        -3.0954929084447969e-05,
        -189.9999999999975,
        0,
        0,
        189.9999999999975,
        -3.0954929084447969e-05,
        0,
        0,
        0,
        0,
        1
      ],
      "name": "Plane"
    },
    {
      "mesh": 0,
      "name": "Plane_Ground_0"
    },
    {
      "children": [
        7,
        8,
        9,
        10,
        11
      ],
      "matrix": [
        100,
        0,
        0,
        0,
        0,
        99.999999999998664,
        1.6292067073209114e-05,
        0,
        0,
        -1.6292067073209114e-05,
        99.999999999998664,
        0,
        0,
        0,
        0,
        1
      ],
      "name": "Body_Mesh.002"
    },
    {
      "mesh": 1,
      "name": "Body_Mesh.002_MAT_Bullets.003_0"
    },
    {
      "mesh": 2,
      "name": "Body_Mesh.002_MAT_Mech2.003_0"
    },
    {
      "mesh": 3,
      "name": "Body_Mesh.002_MAT_Plating.003_0"
    },
    {
      "mesh": 4,
      "name": "Body_Mesh.002_MAT_Body.003_0"
    },
    {
      "mesh": 5,
      "name": "Body_Mesh.002_MAT_Mech1.003_0"
    }
  ],
  "samplers": [
    {
      "magFilter": 9729,
      "minFilter": 9987,
      "wrapS": 10497,
      "wrapT": 10497
    }
  ],
  "scene": 0,
  "scenes": [
    {
      "name": "OSG_Scene",
      "nodes": [
        0
      ]
    }
  ],
  "textures": [
    {
      "sampler": 0,
      "source": 0
    },
    {
      "sampler": 0,
      "source": 1
    },
    {
      "sampler": 0,
      "source": 2
    },
    {
      "sampler": 0,
      "source": 3
    },
    {
      "sampler": 0,
      "source": 4
    },
    {
      "sampler": 0,
      "source": 5
    },
    {
      "sampler": 0,
      "source": 6
    },
    {
      "sampler": 0,
      "source": 7
    },
    {
      "sampler": 0,
      "source": 8
    },
    {
      "sampler": 0,
      "source": 9
    },
    {
      "sampler": 0,
      "source": 10
    },
    {
      "sampler": 0,
      "source": 11
    },
    {
      "sampler": 0,
      "source": 12
    },
    {
      "sampler": 0,
      "source": 13
    },
    {
      "sampler": 0,
      "source": 14
    },
    {
      "sampler": 0,
      "source": 15
    },
    {
      "sampler": 0,
      "source": 16
    },
    {
      "sampler": 0,
      "source": 17
    },
    {
      "sampler": 0,
      "source": 18
    }
  ]
}

